<svg viewBox="0 0 24 24" fill="#f5d460" xmlns="http://www.w3.org/2000/svg" stroke="#292D32" 
stroke-width="0.312"  width="50" height="35">

<path d="M8 1.5V2.5H3C2.44772 2.5 2 2.94772 2 3.5V4.5C2 5.05228 2.44772 5.5 3 5.5H21C21.5523 5.5 22 5.05228 22 4.5V3.5C22 2.94772 21.5523 2.5 21 2.5H16V1.5C16 0.947715 15.5523 0.5 15 0.5H9C8.44772 0.5 8 0.947715 8 1.5Z" fill="#f5d460"></path> 

</svg>

<svg viewBox="0 0 24 24" fill="none" xmlns="http://www.w3.org/2000/svg"><g id="SVGRepo_bgCarrier" stroke-width="0"></g><g id="SVGRepo_tracerCarrier" stroke-linecap="round" stroke-linejoin="round"></g><g id="SVGRepo_iconCarrier"> <path fill-rule="evenodd" clip-rule="evenodd" d="M7 4C7 2.34315 8.34315 1 10 1H14C15.6569 1 17 2.34315 17 4V5H21C21.5523 5 22 5.44772 22 6C22 6.55228 21.5523 7 21 7H19.9394L19.1153 20.1871C19.0164 21.7682 17.7053 23 16.1211 23H7.8789C6.29471 23 4.98356 21.7682 4.88474 20.1871L4.06055 7H3C2.44772 7 2 6.55228 2 6C2 5.44772 2.44772 5 3 5H7V4ZM9 5H15V4C15 3.44772 14.5523 3 14 3H10C9.44772 3 9 3.44772 9 4V5ZM6.06445 7L6.88085 20.0624C6.91379 20.5894 7.35084 21 7.8789 21H16.1211C16.6492 21 17.0862 20.5894 17.1191 20.0624L17.9355 7H6.06445Z" ></path> </svg>